<?xml version="1.0" encoding="utf-8" standalone="no"?>
<!DOCTYPE svg PUBLIC "-//W3C//DTD SVG 1.1//EN"
  "http://www.w3.org/Graphics/SVG/1.1/DTD/svg11.dtd">
<svg xmlns:xlink="http://www.w3.org/1999/xlink" width="303.59952pt" height="173.999553pt" viewBox="0 0 303.59952 173.999553" xmlns="http://www.w3.org/2000/svg" version="1.1">
 <metadata>
  <rdf:RDF xmlns:dc="http://purl.org/dc/elements/1.1/" xmlns:cc="http://creativecommons.org/ns#" xmlns:rdf="http://www.w3.org/1999/02/22-rdf-syntax-ns#">
   <cc:Work>
    <dc:type rdf:resource="http://purl.org/dc/dcmitype/StillImage"/>
    <dc:date>2026-07-17T14:42:19.955733</dc:date>
    <dc:format>image/svg+xml</dc:format>
    <dc:creator>
     <cc:Agent>
      <dc:title>Matplotlib v3.10.8, https://matplotlib.org/</dc:title>
     </cc:Agent>
    </dc:creator>
   </cc:Work>
  </rdf:RDF>
 </metadata>
 <defs>
  <style type="text/css">*{stroke-linejoin: round; stroke-linecap: butt}</style>
 </defs>
 <g id="figure_1">
  <g id="patch_1">
   <path d="M 0 173.999553 
L 303.59952 173.999553 
L 303.59952 0 
L 0 0 
z
" style="fill: #ffffff"/>
  </g>
  <g id="axes_1">
   <g id="patch_2">
    <path d="M 57.782656 141.282366 
L 296.39952 141.282366 
L 296.39952 21.662903 
L 57.782656 21.662903 
z
" style="fill: #ffffff"/>
   </g>
   <g id="matplotlib.axis_1">
    <g id="xtick_1">
     <g id="line2d_1">
      <path d="M 64.457254 141.282366 
L 64.457254 21.662903 
" clip-path="url(#p62c1d7aa8d)" style="fill: none; stroke: #d5dce5; stroke-opacity: 0.85; stroke-width: 0.45; stroke-linecap: square"/>
     </g>
     <g id="line2d_2">
      <defs>
       <path id="mde3b822733" d="M 0 0 
L 0 3.5 
" style="stroke: #000000; stroke-width: 0.8"/>
      </defs>
      <g>
       <use xlink:href="#mde3b822733" x="64.457254" y="141.282366" style="stroke: #000000; stroke-width: 0.8"/>
      </g>
     </g>
     <g id="text_1">
      <text style="font-size: 7px; font-family: 'DejaVu Sans'; text-anchor: middle" x="64.457254" y="153.601272" transform="rotate(-0 64.457254 153.601272)">78</text>
     </g>
    </g>
    <g id="xtick_2">
     <g id="line2d_3">
      <path d="M 97.830242 141.282366 
L 97.830242 21.662903 
" clip-path="url(#p62c1d7aa8d)" style="fill: none; stroke: #d5dce5; stroke-opacity: 0.85; stroke-width: 0.45; stroke-linecap: square"/>
     </g>
     <g id="line2d_4">
      <g>
       <use xlink:href="#mde3b822733" x="97.830242" y="141.282366" style="stroke: #000000; stroke-width: 0.8"/>
      </g>
     </g>
     <g id="text_2">
      <text style="font-size: 7px; font-family: 'DejaVu Sans'; text-anchor: middle" x="97.830242" y="153.601272" transform="rotate(-0 97.830242 153.601272)">80</text>
     </g>
    </g>
    <g id="xtick_3">
     <g id="line2d_5">
      <path d="M 131.20323 141.282366 
L 131.20323 21.662903 
" clip-path="url(#p62c1d7aa8d)" style="fill: none; stroke: #d5dce5; stroke-opacity: 0.85; stroke-width: 0.45; stroke-linecap: square"/>
     </g>
     <g id="line2d_6">
      <g>
       <use xlink:href="#mde3b822733" x="131.20323" y="141.282366" style="stroke: #000000; stroke-width: 0.8"/>
      </g>
     </g>
     <g id="text_3">
      <text style="font-size: 7px; font-family: 'DejaVu Sans'; text-anchor: middle" x="131.20323" y="153.601272" transform="rotate(-0 131.20323 153.601272)">82</text>
     </g>
    </g>
    <g id="xtick_4">
     <g id="line2d_7">
      <path d="M 164.576218 141.282366 
L 164.576218 21.662903 
" clip-path="url(#p62c1d7aa8d)" style="fill: none; stroke: #d5dce5; stroke-opacity: 0.85; stroke-width: 0.45; stroke-linecap: square"/>
     </g>
     <g id="line2d_8">
      <g>
       <use xlink:href="#mde3b822733" x="164.576218" y="141.282366" style="stroke: #000000; stroke-width: 0.8"/>
      </g>
     </g>
     <g id="text_4">
      <text style="font-size: 7px; font-family: 'DejaVu Sans'; text-anchor: middle" x="164.576218" y="153.601272" transform="rotate(-0 164.576218 153.601272)">84</text>
     </g>
    </g>
    <g id="xtick_5">
     <g id="line2d_9">
      <path d="M 197.949206 141.282366 
L 197.949206 21.662903 
" clip-path="url(#p62c1d7aa8d)" style="fill: none; stroke: #d5dce5; stroke-opacity: 0.85; stroke-width: 0.45; stroke-linecap: square"/>
     </g>
     <g id="line2d_10">
      <g>
       <use xlink:href="#mde3b822733" x="197.949206" y="141.282366" style="stroke: #000000; stroke-width: 0.8"/>
      </g>
     </g>
     <g id="text_5">
      <text style="font-size: 7px; font-family: 'DejaVu Sans'; text-anchor: middle" x="197.949206" y="153.601272" transform="rotate(-0 197.949206 153.601272)">86</text>
     </g>
    </g>
    <g id="xtick_6">
     <g id="line2d_11">
      <path d="M 231.322194 141.282366 
L 231.322194 21.662903 
" clip-path="url(#p62c1d7aa8d)" style="fill: none; stroke: #d5dce5; stroke-opacity: 0.85; stroke-width: 0.45; stroke-linecap: square"/>
     </g>
     <g id="line2d_12">
      <g>
       <use xlink:href="#mde3b822733" x="231.322194" y="141.282366" style="stroke: #000000; stroke-width: 0.8"/>
      </g>
     </g>
     <g id="text_6">
      <text style="font-size: 7px; font-family: 'DejaVu Sans'; text-anchor: middle" x="231.322194" y="153.601272" transform="rotate(-0 231.322194 153.601272)">88</text>
     </g>
    </g>
    <g id="xtick_7">
     <g id="line2d_13">
      <path d="M 264.695181 141.282366 
L 264.695181 21.662903 
" clip-path="url(#p62c1d7aa8d)" style="fill: none; stroke: #d5dce5; stroke-opacity: 0.85; stroke-width: 0.45; stroke-linecap: square"/>
     </g>
     <g id="line2d_14">
      <g>
       <use xlink:href="#mde3b822733" x="264.695181" y="141.282366" style="stroke: #000000; stroke-width: 0.8"/>
      </g>
     </g>
     <g id="text_7">
      <text style="font-size: 7px; font-family: 'DejaVu Sans'; text-anchor: middle" x="264.695181" y="153.601272" transform="rotate(-0 264.695181 153.601272)">90</text>
     </g>
    </g>
    <g id="text_8">
     <text style="font-size: 8px; font-family: 'DejaVu Sans'; text-anchor: middle" x="177.091088" y="165.135803" transform="rotate(-0 177.091088 165.135803)">Score (%)</text>
    </g>
   </g>
   <g id="matplotlib.axis_2">
    <g id="ytick_1">
     <g id="line2d_15">
      <defs>
       <path id="m266bca0fa4" d="M 0 0 
L -3.5 0 
" style="stroke: #000000; stroke-width: 0.8"/>
      </defs>
      <g>
       <use xlink:href="#m266bca0fa4" x="57.782656" y="27.100152" style="stroke: #000000; stroke-width: 0.8"/>
      </g>
     </g>
     <g id="text_9">
      <text style="font-size: 7px; font-family: 'DejaVu Sans'; text-anchor: end" x="50.782656" y="29.759605" transform="rotate(-0 50.782656 29.759605)">Pixel AUROC</text>
     </g>
    </g>
    <g id="ytick_2">
     <g id="line2d_16">
      <g>
       <use xlink:href="#m266bca0fa4" x="57.782656" y="135.845118" style="stroke: #000000; stroke-width: 0.8"/>
      </g>
     </g>
     <g id="text_10">
      <text style="font-size: 7px; font-family: 'DejaVu Sans'; text-anchor: end" x="50.782656" y="138.504571" transform="rotate(-0 50.782656 138.504571)">Pixel AUPRO</text>
     </g>
    </g>
   </g>
   <g id="line2d_17">
    <path d="M 243.002739 27.100152 
L 263.026532 27.100152 
" clip-path="url(#p62c1d7aa8d)" style="fill: none; stroke: #d5dce5; stroke-width: 2; stroke-linecap: round"/>
   </g>
   <g id="line2d_18">
    <path d="M 74.46915 135.845118 
L 97.830242 135.845118 
" clip-path="url(#p62c1d7aa8d)" style="fill: none; stroke: #d5dce5; stroke-width: 2; stroke-linecap: round"/>
   </g>
   <g id="patch_3">
    <path d="M 57.782656 141.282366 
L 57.782656 21.662903 
" style="fill: none; stroke: #000000; stroke-width: 0.7; stroke-linejoin: miter; stroke-linecap: square"/>
   </g>
   <g id="patch_4">
    <path d="M 57.782656 141.282366 
L 296.39952 141.282366 
" style="fill: none; stroke: #000000; stroke-width: 0.7; stroke-linejoin: miter; stroke-linecap: square"/>
   </g>
   <g id="PathCollection_1">
    <defs>
     <path id="mdb3b3a2cae" d="M 0 2.738613 
C 0.726289 2.738613 1.422928 2.450055 1.936492 1.936492 
C 2.450055 1.422928 2.738613 0.726289 2.738613 0 
C 2.738613 -0.726289 2.450055 -1.422928 1.936492 -1.936492 
C 1.422928 -2.450055 0.726289 -2.738613 0 -2.738613 
C -0.726289 -2.738613 -1.422928 -2.450055 -1.936492 -1.936492 
C -2.450055 -1.422928 -2.738613 -0.726289 -2.738613 0 
C -2.738613 0.726289 -2.450055 1.422928 -1.936492 1.936492 
C -1.422928 2.450055 -0.726289 2.738613 0 2.738613 
z
" style="stroke: #667085"/>
    </defs>
    <g clip-path="url(#p62c1d7aa8d)">
     <use xlink:href="#mdb3b3a2cae" x="243.002739" y="27.100152" style="fill: #667085; stroke: #667085"/>
    </g>
   </g>
   <g id="text_11">
    <text style="font-size: 7px; font-family: 'DejaVu Sans'; text-anchor: start; fill: #d55e00" x="266.030101" y="29.031714" transform="rotate(-0 266.030101 29.031714)">+1.2</text>
   </g>
   <g id="PathCollection_2">
    <g clip-path="url(#p62c1d7aa8d)">
     <use xlink:href="#mdb3b3a2cae" x="74.46915" y="135.845118" style="fill: #667085; stroke: #667085"/>
    </g>
   </g>
   <g id="text_12">
    <text style="font-size: 7px; font-family: 'DejaVu Sans'; text-anchor: start; fill: #d55e00" x="100.833811" y="137.77668" transform="rotate(-0 100.833811 137.77668)">+1.4</text>
   </g>
   <g id="text_13">
    <text style="font-weight: 700; font-size: 10px; font-family: 'DejaVu Sans'; text-anchor: start; fill: #1f2933" x="38.693307" y="14.798437" transform="rotate(-0 38.693307 14.798437)">a</text>
   </g>
   <g id="text_14">
    <text style="font-weight: 700; font-size: 9px; font-family: 'DejaVu Sans'; text-anchor: start" x="57.782656" y="14.662903" transform="rotate(-0 57.782656 14.662903)">Medical transfer: ISIC/ISBI</text>
   </g>
   <g id="PathCollection_3">
    <defs>
     <path id="m27fc40888b" d="M 0 3 
C 0.795609 3 1.55874 2.683901 2.12132 2.12132 
C 2.683901 1.55874 3 0.795609 3 0 
C 3 -0.795609 2.683901 -1.55874 2.12132 -2.12132 
C 1.55874 -2.683901 0.795609 -3 0 -3 
C -0.795609 -3 -1.55874 -2.683901 -2.12132 -2.12132 
C -2.683901 -1.55874 -3 -0.795609 -3 0 
C -3 0.795609 -2.683901 1.55874 -2.12132 2.12132 
C -1.55874 2.683901 -0.795609 3 0 3 
z
" style="stroke: #d55e00"/>
    </defs>
    <g clip-path="url(#p62c1d7aa8d)">
     <use xlink:href="#m27fc40888b" x="263.026532" y="27.100152" style="fill: #d55e00; stroke: #d55e00"/>
    </g>
   </g>
   <g id="PathCollection_4">
    <g clip-path="url(#p62c1d7aa8d)">
     <use xlink:href="#m27fc40888b" x="97.830242" y="135.845118" style="fill: #d55e00; stroke: #d55e00"/>
    </g>
   </g>
   <g id="legend_1">
    <g id="PathCollection_5">
     <g>
      <use xlink:href="#mdb3b3a2cae" x="247.820614" y="121.414397" style="fill: #667085; stroke: #667085"/>
     </g>
    </g>
    <g id="text_15">
     <text style="font-size: 7px; font-family: 'DejaVu Sans'; text-anchor: start" x="260.420614" y="123.251897" transform="rotate(-0 260.420614 123.251897)">Baseline</text>
    </g>
    <g id="PathCollection_6">
     <g>
      <use xlink:href="#m27fc40888b" x="247.820614" y="131.689085" style="fill: #d55e00; stroke: #d55e00"/>
     </g>
    </g>
    <g id="text_16">
     <text style="font-size: 7px; font-family: 'DejaVu Sans'; text-anchor: start" x="260.420614" y="133.526585" transform="rotate(-0 260.420614 133.526585)">Full</text>
    </g>
   </g>
  </g>
 </g>
 <defs>
  <clipPath id="p62c1d7aa8d">
   <rect x="57.782656" y="21.662903" width="238.616864" height="119.619462"/>
  </clipPath>
 </defs>
</svg>
